<svg baseProfile="tiny" xmlns="http://www.w3.org/2000/svg" viewBox="0 0 360 360"><circle cx="180" cy="180.5" r="171"/><circle fill="#FFF" cx="180" cy="180.5" r="139.3"/><circle cx="134" cy="137.8" r="42.8"/><circle fill="#FFF" cx="134" cy="137.8" r="26"/><g><path stroke="#000" stroke-width="20" stroke-miterlimit="10" d="M224.3 90.7c-6.4 0-11.5 5.2-11.5 11.5V206c0 22.7-18.4 41-41 41-10.8 0-20.5-4.1-27.8-10.9-2.1-2.6-5.4-4.3-9-4.3-6.4 0-11.5 5.2-11.5 11.5 0 3 1.1 5.8 2.9 7.8 11.6 11.7 27.7 18.9 45.5 18.9 35.4 0 64.1-28.7 64.1-64.1V102.3c-.2-6.4-5.3-11.6-11.7-11.6z"/></g></svg>